<svg xmlns="http://www.w3.org/2000/svg" width="4000" height="3326"><path d="M1324.735 2283.412l-327.725 1.378-327.688 2.057-326.993 3.049 1.767-163.08 1.44-163.85 1.767-327.751.886-327.698c.299-90.522-.063-181.053-.26-271.619l276.339-4.357 163.866-2.72 163.86-1.634 163.856-.337 163.822.62q81.935.543 163.832 1.715l153.442 2.032-2.36 153.732q-.7 41.36-1.218 82.692h28.062q-.519-41.323-1.212-82.692l-2.571-163.86-.13-10.392-10.187.1-163.826 2.235q-81.93 1.229-163.831 1.74l-163.823.62-163.856-.399-163.86-1.572-163.866-2.749-276.444-4.392v-20.25l321.497-1.995 163.857-1.117 163.832-.492 163.869-.293 163.856.361 323.555 1.406-1.272 283.74h10.808l-1.282-287.804-.037-4.118-4.127.027-327.645 1.44-163.856.328-163.87-.265-163.83-.524-163.857-1.077-327.744-2.005-6.238-.028v6.222c0 8.784-.028 17.458-.028 26.276l-38.76-.627-15.463-.255-.159 15.86c-.396 54.657-1.147 109.27-1.085 163.859-.134 54.648-.24 109.243.131 163.857l.655 163.866 1.412 163.85 1.892 163.866 2.624 163.86 1.643 81.915 1.96 81.907 2.008 81.916 2.581 83.745 1.802.072c54.657 1.705 109.243 2.949 163.865 4.161l81.944 1.933 81.907 1.54 163.866 2.783 81.943 1.368 81.916 1.026 327.679 3.376c109.211 1.306 218.445 1.306 327.657 1.926l20.055.131v-53.704h24.995l7.803.072v-7.768l.062-219.91h-15.604l.044 212.205h-17.3V2168.07q-.024-48.64-.115-97.332h-39.752q-.143 48.677-.14 97.332v114.979zm-1023.791-33.427l1.994-81.916 1.97-81.906 1.67-81.916 2.591-163.86 1.936-163.865 1.402-163.851.655-163.866c.327-54.614.23-109.209.097-163.857.072-49.473-.52-98.978-.954-148.458l22.91-.361c-.193 90.46-.52 180.928-.265 271.387l.886 327.698 1.836 327.75 1.44 163.85 1.742 164.593 328.467 3.049 327.688 2.094 327.726 1.343 262.642.387v13.721c-102.548.602-205.149.708-307.705 1.849l-327.679 3.41-81.916 1.007-81.943 1.415-163.866 2.783-81.906 1.546-81.944 1.864q-80.953 1.8-161.94 4.118z" fill="#5a5a5a"/><g aria-label="ALLIANCE" font-weight="400" font-size="707.146" font-family="Intro Cond Light Free" letter-spacing="7.071" fill="#5a5a5a" stroke-width="29.464"><path d="M1193.31 1874.216h-126.58l-21.921-61.522H904.087l-21.922 61.522H754.172v-7.779l190.222-494.295h60.815l188.1 494.295zm-254.573-161.937h71.422q-24.043-74.25-36.065-140.722-14.143 70.008-35.357 140.722zM1497.648 1758.244v115.972h-259.523v-495.002h122.336v379.03zM1812.714 1758.244v115.972h-259.522v-495.002h122.336v379.03zM2074.745 1874.216h-222.044v-104.658h49.5v-285.687h-44.55v-104.658h212.144v104.658h-45.257v285.687h50.207z"/><path d="M2496.392 1874.216h-126.579l-21.922-61.522H2207.17l-21.921 61.522h-127.994v-7.779l190.223-494.295h60.814l188.101 494.295zm-254.573-161.937h71.422q-24.043-74.25-36.064-140.722-14.143 70.008-35.358 140.722zM2662.837 1874.216H2540.5V1374.97h38.186l208.608 240.43v-236.188h122.337v498.539h-35.357l-211.437-244.673zM2974.556 1627.422q0-115.265 58.693-185.272 59.4-70.008 156.28-70.008 72.835 0 131.528 48.793 58.693 48.086 68.594 140.722h-117.387q-18.386-72.836-82.736-72.836-41.722 0-67.886 38.186-25.457 37.479-25.457 99.708 0 60.814 25.457 98.293 26.164 37.479 68.593 37.479 32.529 0 54.45-19.8 21.922-19.8 28.286-58.693h118.094q-7.072 67.179-38.893 113.143-31.822 45.257-73.543 64.35-41.015 19.093-89.1 19.093-96.88 0-156.28-69.3-58.693-70.008-58.693-183.858zM3583.01 1491.65v70.714h131.53v113.144h-131.53v80.614h149.916v118.094h-271.544v-495.002h265.887v112.436z"/></g></svg>